<svg width="30" height="30" viewBox="0 0 30 30" fill="none" xmlns="http://www.w3.org/2000/svg">
<path d="M14.6658 19.1454C15.7527 20.8564 15.6678 21.3808 14.7215 22.3271C13.5144 23.5341 13.3621 24.4775 14.6658 26.5282C14.7888 26.7187 15.0408 26.7743 15.2312 26.6542C15.4217 26.5312 15.4773 26.2792 15.3572 26.0888C14.2703 24.3778 14.3553 23.8534 15.3015 22.9071C16.5086 21.7001 16.6609 20.7568 15.3572 18.706C15.2342 18.5155 14.9822 18.4599 14.7918 18.58C14.6013 18.7001 14.5428 18.955 14.6658 19.1454ZM8.1033 19.1454C9.19022 20.8564 9.10526 21.3808 8.15897 22.3271C6.95193 23.5341 6.79959 24.4775 8.1033 26.5282C8.22635 26.7187 8.4783 26.7743 8.66873 26.6542C8.85916 26.5312 8.91483 26.2792 8.79471 26.0888C7.70779 24.3778 7.79276 23.8534 8.73904 22.9071C9.94608 21.7001 10.0984 20.7568 8.79471 18.706C8.67166 18.5155 8.41971 18.4599 8.22928 18.58C8.03885 18.7001 7.98319 18.955 8.1033 19.1454ZM21.284 22.3271C20.0769 23.5341 19.9246 24.4775 21.2283 26.5282C21.3513 26.7187 21.6033 26.7743 21.7937 26.6542C21.9842 26.5312 22.0398 26.2792 21.9197 26.0888C20.8328 24.3778 20.9178 23.8534 21.864 22.9071C23.0711 21.7001 23.2234 20.7568 21.9197 18.706C21.7967 18.5155 21.5447 18.4599 21.3543 18.58C21.1638 18.703 21.1082 18.955 21.2283 19.1454C22.3152 20.8564 22.2303 21.3808 21.284 22.3271ZM1.88651 6.62394V13.1806C1.88651 14.9941 3.35428 16.4648 5.16775 16.4648H24.8553C26.6658 16.4648 28.1365 14.9941 28.1365 13.1806V6.62394C28.1365 4.81046 26.6687 3.33976 24.8553 3.33976H5.16775C3.35721 3.33976 1.88651 4.81046 1.88651 6.62394Z" fill="white"/>
<path d="M3.5271 6.62403C3.5271 5.71876 4.26245 4.98048 5.16772 4.98048H24.8552C25.7605 4.98048 26.4958 5.71583 26.4958 6.62403V13.1807C26.4958 14.0859 25.7605 14.8242 24.8552 14.8242H5.16772C4.26245 14.8242 3.5271 14.0889 3.5271 13.1807V6.62403Z" fill="white"/>
<path d="M11.7301 7.85154C11.7301 7.17478 12.2692 6.62107 12.9518 6.62107H15.4274C16.1071 6.62107 16.6491 7.18064 16.6491 7.85154C16.6491 8.5283 16.11 9.08201 15.4274 9.08201H12.9518C12.2751 9.08201 11.7301 8.52244 11.7301 7.85154ZM6.80827 7.85154C6.80827 7.17185 7.36491 6.62107 8.03874 6.62107C8.71843 6.62107 9.26921 7.17771 9.26921 7.85154C9.26921 8.53123 8.71257 9.08201 8.03874 9.08201C7.35905 9.08201 6.80827 8.52537 6.80827 7.85154ZM7.21843 11.5429H22.8044V10.7226H7.21843V11.5429ZM7.21843 13.1836H22.8044V12.3633H7.21843V13.1836Z" fill="white"/>
<path d="M12.5504 7.85152C12.5504 8.07125 12.7292 8.26168 12.9518 8.26168H15.4274C15.653 8.26168 15.8288 8.07711 15.8288 7.85152C15.8288 7.63179 15.6501 7.44136 15.4274 7.44136H12.9518C12.7262 7.44136 12.5504 7.62593 12.5504 7.85152ZM7.62857 7.85152C7.62857 8.07125 7.81314 8.26168 8.03873 8.26168C8.25845 8.26168 8.44888 8.07711 8.44888 7.85152C8.44888 7.63179 8.26431 7.44136 8.03873 7.44136C7.819 7.44136 7.62857 7.62593 7.62857 7.85152Z" fill="white"/>
</svg>
