<svg width="25" height="25" viewBox="0 0 25 25" fill="none" xmlns="http://www.w3.org/2000/svg">
<path fill-rule="evenodd" clip-rule="evenodd" d="M7.90471 5.73021C7.90471 4.40332 6.50832 3.5403 5.32152 4.13371L3.28158 5.15368C2.67686 5.45604 2.29488 6.0741 2.29488 6.75018V10.4546H2.03989C1.61741 10.4546 1.27491 10.7971 1.27491 11.2196V17.3394C1.27491 19.4519 2.98737 21.1643 5.09979 21.1643C7.21222 21.1643 8.92468 19.4519 8.92468 17.3394V11.2196C8.92468 10.7971 8.58218 10.4546 8.1597 10.4546H7.90471V5.73021ZM2.80486 11.9846H7.39472V17.3394C7.39472 18.6069 6.36725 19.6344 5.09979 19.6344C3.83234 19.6344 2.80486 18.6069 2.80486 17.3394V11.9846ZM6.37476 10.4546V5.73021C6.37476 5.54065 6.17527 5.41737 6.00573 5.50214L3.96579 6.52211C3.8794 6.5653 3.82483 6.6536 3.82483 6.75018V10.4546H6.37476Z" fill="white"/>
<path fill-rule="evenodd" clip-rule="evenodd" d="M16.8293 4.33481C13.3086 4.33481 10.4545 7.18891 10.4545 10.7096C10.4545 13.9714 12.9043 16.6611 16.0644 17.039V19.6343H13.7694C13.347 19.6343 13.0045 19.9768 13.0045 20.3993C13.0045 20.8219 13.347 21.1643 13.7694 21.1643H19.8892C20.3117 21.1643 20.6542 20.8219 20.6542 20.3993C20.6542 19.9768 20.3117 19.6343 19.8892 19.6343H17.5943V17.039C20.7544 16.6611 23.2041 13.9714 23.2041 10.7096C23.2041 7.18891 20.3501 4.33481 16.8293 4.33481ZM16.8293 15.5544C19.5051 15.5544 21.6742 13.3854 21.6742 10.7096C21.6742 8.03388 19.5051 5.86476 16.8293 5.86476C14.1535 5.86476 11.9845 8.03388 11.9845 10.7096C11.9845 13.3854 14.1535 15.5544 16.8293 15.5544Z" fill="white"/>
</svg>
