<svg width="25" height="25" viewBox="0 0 25 25" fill="none" xmlns="http://www.w3.org/2000/svg">
<path fill-rule="evenodd" clip-rule="evenodd" d="M2.6776 2.29501V22.1844C2.6776 22.8182 3.19128 23.3319 3.82506 23.3319C6.81153 23.3319 17.6681 23.3319 20.6546 23.3319C21.2883 23.3319 21.802 22.8182 21.802 22.1844V2.29501C21.802 1.66123 21.2883 1.14754 20.6546 1.14754C17.6681 1.14754 6.81153 1.14754 3.82506 1.14754C3.19128 1.14754 2.6776 1.66123 2.6776 2.29501ZM3.44257 14.1521V22.1844C3.44257 22.3955 3.61393 22.5669 3.82506 22.5669C6.81153 22.5669 17.6681 22.5669 20.6546 22.5669C20.8657 22.5669 21.037 22.3955 21.037 22.1844V14.1521H8.41492V15.4909C8.41492 15.702 8.24357 15.8733 8.03243 15.8733H6.50248C6.29135 15.8733 6.11999 15.702 6.11999 15.4909V14.1521H3.44257ZM16.4472 14.9171C14.5474 14.9171 13.0048 16.4597 13.0048 18.3595C13.0048 20.2593 14.5474 21.8019 16.4472 21.8019C18.347 21.8019 19.8896 20.2593 19.8896 18.3595C19.8896 16.4597 18.347 14.9171 16.4472 14.9171ZM16.4472 15.6821C17.9247 15.6821 19.1246 16.882 19.1246 18.3595C19.1246 19.8371 17.9247 21.0369 16.4472 21.0369C14.9696 21.0369 13.7698 19.8371 13.7698 18.3595C13.7698 16.882 14.9696 15.6821 16.4472 15.6821ZM17.0802 19.5793C17.1272 19.5265 17.1169 19.4439 17.0584 19.4045C16.8825 19.2863 16.6717 19.2094 16.4456 19.2094C16.2196 19.2094 16.0096 19.2863 15.8337 19.4037C15.7751 19.4431 15.7648 19.5257 15.8119 19.5785L16.3604 20.1897C16.4063 20.2402 16.485 20.2402 16.5306 20.1897L17.0802 19.5793ZM16.4456 18.7011C16.8155 18.7011 17.1563 18.8235 17.4309 19.0289C17.4795 19.0652 17.5461 19.061 17.5866 19.0163L17.7828 18.7979C17.8272 18.7485 17.8226 18.6705 17.7706 18.6299C17.4038 18.3454 16.9452 18.1637 16.4456 18.1637C15.9476 18.1637 15.489 18.345 15.123 18.6288C15.0706 18.669 15.066 18.7474 15.11 18.7963L15.3062 19.0151C15.3464 19.0599 15.4133 19.0641 15.4615 19.0281C15.7361 18.8231 16.0765 18.7011 16.4456 18.7011ZM16.4456 17.6408C17.0878 17.6408 17.6761 17.8653 18.1405 18.2375C18.1879 18.2761 18.2564 18.2719 18.2973 18.2264L18.474 18.0298C18.518 17.9812 18.5134 17.904 18.4629 17.8627C17.9117 17.4121 17.211 17.1034 16.4456 17.1034C15.6814 17.1034 14.9819 17.4109 14.4318 17.86C14.381 17.9017 14.3764 17.9786 14.4204 18.0275L14.5967 18.2241C14.6376 18.2696 14.7057 18.2738 14.7535 18.2356C15.2171 17.8642 15.8046 17.6408 16.4456 17.6408ZM6.88497 15.1084V10.901H7.64995V15.1084H6.88497ZM21.037 12.6222H8.41492V13.3872H21.037V12.6222ZM6.11999 13.3872V12.6222H3.44257V13.3872H6.11999ZM21.037 11.8572H11.4748V1.91252H20.6546C20.8657 1.91252 21.037 2.08388 21.037 2.29501V11.8572ZM10.7099 1.91252H3.82506C3.61393 1.91252 3.44257 2.08388 3.44257 2.29501V11.8572H6.11999V10.5185C6.11999 10.3074 6.29135 10.136 6.50248 10.136H8.03243C8.24357 10.136 8.41492 10.3074 8.41492 10.5185V11.8572H10.7099V1.91252ZM20.2721 3.82496C20.2721 3.5205 20.1512 3.22866 19.9359 3.01371C19.7209 2.79836 19.4291 2.6775 19.1246 2.6775H13.3873C13.0828 2.6775 12.791 2.79836 12.576 3.01371C12.3607 3.22866 12.2398 3.5205 12.2398 3.82496C12.2398 5.29066 12.2398 8.47908 12.2398 9.94478C12.2398 10.2492 12.3607 10.5411 12.576 10.756C12.791 10.9714 13.0828 11.0922 13.3873 11.0922H19.1246C19.4291 11.0922 19.7209 10.9714 19.9359 10.756C20.1512 10.5411 20.2721 10.2492 20.2721 9.94478V3.82496ZM19.5071 3.82496V9.94478C19.5071 10.0461 19.4669 10.1437 19.395 10.2152C19.3235 10.2871 19.226 10.3273 19.1246 10.3273H13.3873C13.2859 10.3273 13.1884 10.2871 13.1169 10.2152C13.0449 10.1437 13.0048 10.0461 13.0048 9.94478V3.82496C13.0048 3.7236 13.0449 3.62607 13.1169 3.55454C13.1884 3.48264 13.2859 3.44248 13.3873 3.44248H19.1246C19.226 3.44248 19.3235 3.48264 19.395 3.55454C19.4669 3.62607 19.5071 3.7236 19.5071 3.82496Z" fill="white"/>
</svg>
