<svg width="290" height="235" viewBox="0 0 290 235" fill="none" xmlns="http://www.w3.org/2000/svg">
<rect width="290" height="235" rx="10" fill="black"/>
<path d="M69.3636 97.8182C69.0606 94.4848 67.7121 91.8939 65.3182 90.0455C62.9545 88.1667 59.5758 87.2273 55.1818 87.2273C52.2727 87.2273 49.8485 87.6061 47.9091 88.3636C45.9697 89.1212 44.5152 90.1667 43.5455 91.5C42.5758 92.803 42.0758 94.303 42.0455 96C41.9848 97.3939 42.2576 98.6212 42.8636 99.6818C43.5 100.742 44.4091 101.682 45.5909 102.5C46.803 103.288 48.2576 103.985 49.9545 104.591C51.6515 105.197 53.5606 105.727 55.6818 106.182L63.6818 108C68.2879 109 72.3485 110.333 75.8636 112C79.4091 113.667 82.3788 115.652 84.7727 117.955C87.197 120.258 89.0303 122.909 90.2727 125.909C91.5152 128.909 92.1515 132.273 92.1818 136C92.1515 141.879 90.6667 146.924 87.7273 151.136C84.7879 155.348 80.5606 158.576 75.0455 160.818C69.5606 163.061 62.9394 164.182 55.1818 164.182C47.3939 164.182 40.6061 163.015 34.8182 160.682C29.0303 158.348 24.5303 154.803 21.3182 150.045C18.1061 145.288 16.4545 139.273 16.3636 132H37.9091C38.0909 135 38.8939 137.5 40.3182 139.5C41.7424 141.5 43.697 143.015 46.1818 144.045C48.697 145.076 51.6061 145.591 54.9091 145.591C57.9394 145.591 60.5152 145.182 62.6364 144.364C64.7879 143.545 66.4394 142.409 67.5909 140.955C68.7424 139.5 69.3333 137.833 69.3636 135.955C69.3333 134.197 68.7879 132.697 67.7273 131.455C66.6667 130.182 65.0303 129.091 62.8182 128.182C60.6364 127.242 57.8485 126.379 54.4545 125.591L44.7273 123.318C36.6667 121.47 30.3182 118.485 25.6818 114.364C21.0455 110.212 18.7424 104.606 18.7727 97.5455C18.7424 91.7879 20.2879 86.7424 23.4091 82.4091C26.5303 78.0758 30.8485 74.697 36.3636 72.2727C41.8788 69.8485 48.1667 68.6364 55.2273 68.6364C62.4394 68.6364 68.697 69.8636 74 72.3182C79.3333 74.7424 83.4697 78.1515 86.4091 82.5455C89.3485 86.9394 90.8485 92.0303 90.9091 97.8182H69.3636ZM103.545 163V69.9091H142C148.97 69.9091 154.985 71.2727 160.045 74C165.136 76.697 169.061 80.4697 171.818 85.3182C174.576 90.1364 175.955 95.7424 175.955 102.136C175.955 108.561 174.545 114.182 171.727 119C168.939 123.788 164.955 127.5 159.773 130.136C154.591 132.773 148.439 134.091 141.318 134.091H117.591V116.364H137.136C140.53 116.364 143.364 115.773 145.636 114.591C147.939 113.409 149.682 111.758 150.864 109.636C152.045 107.485 152.636 104.985 152.636 102.136C152.636 99.2576 152.045 96.7727 150.864 94.6818C149.682 92.5606 147.939 90.9242 145.636 89.7727C143.333 88.6212 140.5 88.0455 137.136 88.0455H126.045V163H103.545ZM271.545 103.636H248.818C248.515 101.303 247.894 99.197 246.955 97.3182C246.015 95.4394 244.773 93.8333 243.227 92.5C241.682 91.1667 239.848 90.1515 237.727 89.4545C235.636 88.7273 233.318 88.3636 230.773 88.3636C226.258 88.3636 222.364 89.4697 219.091 91.6818C215.848 93.8939 213.348 97.0909 211.591 101.273C209.864 105.455 209 110.515 209 116.455C209 122.636 209.879 127.818 211.636 132C213.424 136.152 215.924 139.288 219.136 141.409C222.379 143.5 226.212 144.545 230.636 144.545C233.121 144.545 235.379 144.227 237.409 143.591C239.47 142.955 241.273 142.03 242.818 140.818C244.394 139.576 245.682 138.076 246.682 136.318C247.712 134.53 248.424 132.515 248.818 130.273L271.545 130.409C271.152 134.53 269.955 138.591 267.955 142.591C265.985 146.591 263.273 150.242 259.818 153.545C256.364 156.818 252.152 159.424 247.182 161.364C242.242 163.303 236.576 164.273 230.182 164.273C221.758 164.273 214.212 162.424 207.545 158.727C200.909 155 195.667 149.576 191.818 142.455C187.97 135.333 186.045 126.667 186.045 116.455C186.045 106.212 188 97.5303 191.909 90.4091C195.818 83.2879 201.106 77.8788 207.773 74.1818C214.439 70.4848 221.909 68.6364 230.182 68.6364C235.818 68.6364 241.03 69.4242 245.818 71C250.606 72.5455 254.818 74.8182 258.455 77.8182C262.091 80.7879 265.045 84.4394 267.318 88.7727C269.591 93.1061 271 98.0606 271.545 103.636Z" fill="white"/>
</svg>
