<svg width="25" height="25" viewBox="0 0 25 25" fill="none" xmlns="http://www.w3.org/2000/svg">
<g clip-path="url(#clip0_1_104)">
<path d="M24.4557 18.6504C24.3623 18.3248 24.022 18.1425 23.6993 18.2298L19.6876 19.3763L16.2511 17.0854C16.1507 17.0185 16.0324 16.9826 15.9116 16.9826H1.83604C1.49783 16.9826 1.22406 17.2564 1.22406 17.5946C1.22406 17.9328 1.49783 18.2066 1.83604 18.2066H15.726L19.2437 20.5517C19.3452 20.6194 19.4635 20.6545 19.5831 20.6545C19.6394 20.6545 19.6961 20.6467 19.7512 20.6313L24.0351 19.4073C24.3603 19.3138 24.5483 18.9752 24.4557 18.6504Z" fill="white"/>
<path d="M20.1952 12.0867C18.5082 12.0867 17.1353 13.4591 17.1353 15.1466C17.1353 16.8336 18.5082 18.2065 20.1952 18.2065C21.8826 18.2065 23.2551 16.8336 23.2551 15.1466C23.2551 13.4592 21.8826 12.0867 20.1952 12.0867ZM20.1952 16.9825C19.1814 16.9825 18.3592 16.1604 18.3592 15.1466C18.3592 14.1327 19.1814 13.3106 20.1952 13.3106C21.209 13.3106 22.0311 14.1327 22.0311 15.1466C22.0312 16.1605 21.2091 16.9825 20.1952 16.9825Z" fill="white"/>
<path d="M10.4039 3.82491C8.71691 3.82491 7.34401 5.19738 7.34401 6.88483C7.34401 8.57227 8.71648 9.94474 10.4039 9.94474C12.0914 9.94474 13.4638 8.57184 13.4638 6.88483C13.4638 5.19743 12.0914 3.82491 10.4039 3.82491ZM10.4039 8.72077C9.39009 8.72077 8.56797 7.89866 8.56797 6.88483C8.56797 5.87099 9.38966 5.04888 10.4039 5.04888C11.4178 5.04888 12.2399 5.87099 12.2399 6.88483C12.2399 7.89866 11.4178 8.72077 10.4039 8.72077Z" fill="white"/>
<path d="M13.7783 13.398L7.65847 9.72612C7.51203 9.63882 7.33537 9.61391 7.17257 9.6633C7.00896 9.71102 6.8727 9.82485 6.79601 9.97704L4.34808 14.8729C4.19714 15.1752 4.31992 15.5428 4.62223 15.6942C4.70996 15.7379 4.80338 15.7586 4.89518 15.7586C5.11999 15.7586 5.33581 15.635 5.4431 15.4204L7.59522 11.1158L13.1483 14.4474C13.4388 14.6212 13.8142 14.5274 13.988 14.2377C14.1618 13.948 14.068 13.5718 13.7783 13.398Z" fill="white"/>
<path d="M15.9117 19.4304H0.612135C0.273919 19.4304 0.000152588 19.7042 0.000152588 20.0424C0.000152588 20.3806 0.273919 20.6544 0.612135 20.6544H15.9117C16.2499 20.6544 16.5237 20.3806 16.5237 20.0424C16.5237 19.7042 16.2499 19.4304 15.9117 19.4304Z" fill="white"/>
</g>
<defs>
<clipPath id="clip0_1_104">
<rect width="24.4793" height="24.4793" fill="white"/>
</clipPath>
</defs>
</svg>
