<svg width="25" height="25" viewBox="0 0 25 25" fill="none" xmlns="http://www.w3.org/2000/svg">
<g clip-path="url(#clip0_1_128)">
<path d="M22.4428 13.7187L16.5277 11.5934L14.0557 8.48865C13.8406 8.22582 13.5698 8.01417 13.2628 7.86906C12.9558 7.72394 12.6203 7.64901 12.2807 7.6497H6.16386C5.7898 7.64955 5.42138 7.74089 5.09071 7.91576C4.76004 8.09062 4.47716 8.34372 4.26672 8.65297L2.19256 11.7002C1.76036 12.3344 1.52943 13.0842 1.52994 13.8517V19.8893C1.52994 20.0922 1.61053 20.2868 1.754 20.4303C1.89746 20.5737 2.09203 20.6543 2.29492 20.6543H3.93357C4.10037 21.3105 4.48109 21.8923 5.01556 22.3079C5.55002 22.7235 6.20774 22.9492 6.88478 22.9492C7.56181 22.9492 8.21953 22.7235 8.754 22.3079C9.28846 21.8923 9.66918 21.3105 9.83598 20.6543H14.6432C14.81 21.3105 15.1908 21.8923 15.7252 22.3079C16.2597 22.7235 16.9174 22.9492 17.5945 22.9492C18.2715 22.9492 18.9292 22.7235 19.4637 22.3079C19.9981 21.8923 20.3789 21.3105 20.5457 20.6543H22.1843C22.3872 20.6543 22.5818 20.5737 22.7252 20.4303C22.8687 20.2868 22.9493 20.0922 22.9493 19.8893V14.4389C22.9493 14.2813 22.9007 14.1275 22.81 13.9986C22.7194 13.8697 22.5911 13.772 22.4428 13.7187ZM6.88478 21.4193C6.58218 21.4193 6.28638 21.3296 6.03478 21.1614C5.78318 20.9933 5.58708 20.7544 5.47128 20.4748C5.35548 20.1953 5.32519 19.8876 5.38422 19.5909C5.44325 19.2941 5.58897 19.0215 5.80294 18.8075C6.0169 18.5935 6.28952 18.4478 6.5863 18.3888C6.88308 18.3297 7.1907 18.36 7.47026 18.4758C7.74983 18.5916 7.98877 18.7877 8.15689 19.0393C8.325 19.2909 8.41473 19.5867 8.41473 19.8893C8.41418 20.2949 8.25282 20.6838 7.96601 20.9706C7.67921 21.2574 7.29038 21.4187 6.88478 21.4193ZM17.5945 21.4193C17.2919 21.4193 16.9961 21.3296 16.7445 21.1614C16.4929 20.9933 16.2968 20.7544 16.181 20.4748C16.0652 20.1953 16.0349 19.8876 16.0939 19.5909C16.1529 19.2941 16.2986 19.0215 16.5126 18.8075C16.7266 18.5935 16.9992 18.4478 17.296 18.3888C17.5928 18.3297 17.9004 18.36 18.1799 18.4758C18.4595 18.5916 18.6984 18.7877 18.8666 19.0393C19.0347 19.2909 19.1244 19.5867 19.1244 19.8893C19.1239 20.2949 18.9625 20.6838 18.6757 20.9706C18.3889 21.2574 18.0001 21.4188 17.5945 21.4193ZM21.4193 19.1244H20.5457C20.3789 18.4682 19.9981 17.8863 19.4637 17.4707C18.9292 17.0551 18.2715 16.8295 17.5945 16.8295C16.9174 16.8295 16.2597 17.0551 15.7252 17.4707C15.1908 17.8863 14.81 18.4682 14.6432 19.1244H9.83598C9.66918 18.4682 9.28846 17.8863 8.754 17.4707C8.21953 17.0551 7.56181 16.8295 6.88478 16.8295C6.20774 16.8295 5.55002 17.0551 5.01556 17.4707C4.48109 17.8863 4.10037 18.4682 3.93357 19.1244H3.05989V13.8517C3.05972 13.3909 3.19834 12.9408 3.45768 12.56L5.53153 9.51434C5.60163 9.4112 5.69591 9.32678 5.80612 9.26845C5.91634 9.21011 6.03916 9.17963 6.16386 9.17966H12.2807C12.3921 9.17918 12.5023 9.20322 12.6034 9.25009C12.7045 9.29696 12.794 9.36549 12.8657 9.45084L15.4661 12.7161C15.5546 12.8273 15.6723 12.9116 15.806 12.9597L21.4193 14.9767V19.1244Z" fill="white"/>
<path d="M18.7837 4.58984C18.7837 4.18407 18.9449 3.79492 19.2319 3.508C19.5188 3.22108 19.9079 3.05989 20.3137 3.05989H22.9493C22.6481 2.534 22.1967 2.11008 21.653 1.84249C21.1093 1.57491 20.498 1.47586 19.8976 1.55806C19.2972 1.64027 18.735 1.89997 18.2832 2.30385C17.8314 2.70774 17.5106 3.23739 17.3619 3.82486H12.2396V5.35482H17.3619C17.5106 5.94229 17.8314 6.47195 18.2832 6.87583C18.735 7.27972 19.2972 7.53942 19.8976 7.62162C20.498 7.70382 21.1093 7.60478 21.653 7.33719C22.1967 7.06961 22.6481 6.64568 22.9493 6.1198H20.3137C19.9079 6.1198 19.5188 5.9586 19.2319 5.67168C18.9449 5.38476 18.7837 4.99561 18.7837 4.58984Z" fill="white"/>
</g>
<defs>
<clipPath id="clip0_1_128">
<rect width="24.4793" height="24.4793" fill="white"/>
</clipPath>
</defs>
</svg>
